<?xml version="1.0" encoding="utf-8"?>
<!-- Generator: Adobe Illustrator 25.4.1, SVG Export Plug-In . SVG Version: 6.00 Build 0)  -->
<svg version="1.1" id="Modo_de_isolamento" xmlns="http://www.w3.org/2000/svg" xmlns:xlink="http://www.w3.org/1999/xlink" x="0px"
	 y="0px" viewBox="0 0 542.53 245.22" style="enable-background:new 0 0 542.53 245.22;" xml:space="preserve">
<style type="text/css">
	.st0{fill:#F39422;}
	.st1{fill:#15467C;}
	.st2{fill:#0B7BC0;}
	.st3{fill:#F49509;}
	.st4{fill:#1879BE;}
</style>
<g>
	<g>
		<path class="st0" d="M268.22,92.99c4.91,0,8.26,1.95,11.44,4.74l-5.04,5.76c-1.99-2.25-4.36-2.88-6.4-2.88
			c-4.62,0-7.62,3.39-7.62,7.67c0,4.28,3.01,7.67,7.62,7.67c2.03,0,4.4-0.64,6.4-2.88l5.04,5.76c-3.18,2.79-6.52,4.74-11.44,4.74
			c-10,0-16.52-7.03-16.52-15.29C251.7,100.03,258.23,92.99,268.22,92.99"/>
		<path class="st0" d="M285.68,91.68c3.3,0,4.87,1.69,4.87,3.9s-1.74,3.9-4.87,3.9c-3.13,0-4.87-1.69-4.87-3.9
			S282.38,91.68,285.68,91.68 M290.04,100.83h-8.73v22.28h8.73V100.83z"/>
		<path class="st0" d="M309.06,120.36c-1.19,1.99-3.47,3.22-6.35,3.22c-5.93,0-10.46-4.87-10.46-11.6s4.53-11.61,10.46-11.61
			c2.88,0,5.17,1.23,6.35,3.26V92.48h8.73v30.62h-8.73V120.36z M305.08,116.93c2.54,0,4.11-2.16,4.11-4.96
			c0-2.8-1.57-4.96-4.11-4.96c-2.54,0-4.11,2.16-4.11,4.96C300.97,114.76,302.54,116.93,305.08,116.93"/>
		<path class="st0" d="M336.81,120.36c-1.19,1.99-3.47,3.22-6.35,3.22c-5.93,0-10.46-4.87-10.46-11.6s4.53-11.61,10.46-11.61
			c2.88,0,5.17,1.23,6.35,3.26v-2.8h8.73v22.28h-8.73V120.36z M332.83,116.93c2.54,0,4.11-2.16,4.11-4.96c0-2.8-1.57-4.96-4.11-4.96
			c-2.54,0-4.11,2.16-4.11,4.96C328.72,114.76,330.29,116.93,332.83,116.93"/>
		<path class="st0" d="M364.56,120.36c-1.19,1.99-3.47,3.22-6.35,3.22c-5.93,0-10.46-4.87-10.46-11.6s4.53-11.61,10.46-11.61
			c2.88,0,5.17,1.23,6.35,3.26V92.48h8.72v30.62h-8.72V120.36z M360.58,116.93c2.54,0,4.11-2.16,4.11-4.96
			c0-2.8-1.57-4.96-4.11-4.96c-2.54,0-4.11,2.16-4.11,4.96C356.47,114.76,358.04,116.93,360.58,116.93"/>
		<path class="st0" d="M375.45,112.05c0-6.1,4.41-11.69,12.45-11.69c7.03,0,12.28,4.24,12.28,11.35c0,0.85-0.08,1.57-0.21,1.99
			h-16.39c0,1.23,1.95,3.35,5.72,3.35c1.48,0,3.77-0.38,6.01-2.16l3.6,4.83c-2.75,2.79-6.69,3.86-10.38,3.86
			C380.32,123.58,375.45,118.45,375.45,112.05 M383.58,109.68h8.73c-0.13-2.16-2.2-3.22-4.36-3.22
			C385.83,106.46,383.71,107.52,383.58,109.68"/>
		<path class="st1" d="M268.44,156.12c-1.19,1.99-3.47,3.22-6.35,3.22c-5.93,0-10.46-4.87-10.46-11.6c0-6.74,4.53-11.61,10.46-11.61
			c2.88,0,5.17,1.23,6.35,3.26v-11.14h8.72v30.62h-8.72V156.12z M264.45,152.69c2.54,0,4.11-2.16,4.11-4.96
			c0-2.8-1.57-4.96-4.11-4.96c-2.54,0-4.11,2.16-4.11,4.96C260.35,150.53,261.91,152.69,264.45,152.69"/>
		<path class="st1" d="M279.33,147.82c0-6.1,4.41-11.69,12.45-11.69c7.03,0,12.28,4.24,12.28,11.35c0,0.85-0.08,1.57-0.21,1.99
			h-16.39c0,1.23,1.95,3.35,5.72,3.35c1.48,0,3.77-0.38,6.01-2.16l3.6,4.83c-2.75,2.79-6.69,3.85-10.38,3.85
			C284.2,159.34,279.33,154.22,279.33,147.82 M287.46,145.45h8.73c-0.13-2.16-2.2-3.22-4.36-3.22
			C289.7,142.23,287.58,143.29,287.46,145.45"/>
		<polygon class="st2" points="325.59,129.23 325.59,136.85 317.54,136.85 317.54,158.88 308.81,158.88 308.81,136.85 
			300.93,136.85 300.93,129.23 		"/>
		<path class="st2" d="M335.59,159.34c-7.62,0-12.88-5.17-12.88-11.6c0-6.44,5.25-11.61,12.88-11.61c7.62,0,12.88,5.17,12.88,11.61
			C348.46,154.17,343.21,159.34,335.59,159.34 M335.59,152.57c2.75,0,4.79-1.99,4.79-4.83c0-2.84-2.03-4.83-4.79-4.83
			c-2.8,0-4.79,2.03-4.79,4.83C330.8,150.53,332.79,152.57,335.59,152.57"/>
		<path class="st2" d="M366.3,156.12c-1.19,1.99-3.47,3.22-6.35,3.22c-5.93,0-10.46-4.87-10.46-11.6c0-6.74,4.53-11.61,10.46-11.61
			c2.88,0,5.17,1.23,6.35,3.26v-11.14h8.73v30.62h-8.73V156.12z M362.32,152.69c2.54,0,4.11-2.16,4.11-4.96
			c0-2.8-1.57-4.96-4.11-4.96c-2.54,0-4.11,2.16-4.11,4.96C358.21,150.53,359.78,152.69,362.32,152.69"/>
		<path class="st2" d="M390.02,159.34c-7.62,0-12.88-5.17-12.88-11.6c0-6.44,5.25-11.61,12.88-11.61c7.62,0,12.88,5.17,12.88,11.61
			C402.9,154.17,397.65,159.34,390.02,159.34 M390.02,152.57c2.75,0,4.79-1.99,4.79-4.83c0-2.84-2.03-4.83-4.79-4.83
			c-2.8,0-4.79,2.03-4.79,4.83C385.24,150.53,387.23,152.57,390.02,152.57"/>
		<path class="st2" d="M409.94,150.74c0.42,2.08,1.86,2.71,3.64,2.71c1.27,0,2.08-0.38,2.08-1.1c0-0.42-0.17-0.72-1.48-1.18
			l-2.54-0.93c-1.23-0.47-6.95-1.91-6.95-6.78c0-4.45,3.94-7.33,9.07-7.33c3.98,0,7.12,1.52,8.81,5.68l-6.31,1.78
			c-0.59-1.35-1.57-1.78-2.58-1.78c-0.93,0-1.4,0.51-1.4,1.06c0,0.55,0.47,0.81,1.48,1.14l2.46,1.02c4.83,1.69,6.99,4.07,7.07,7.11
			c0,5-4.53,7.2-9.7,7.2c-5.55,0-9.23-2.29-10-7.16L409.94,150.74z"/>
		<polygon class="st1" points="434.8,144.73 434.8,158.88 425.91,158.88 425.91,129.23 432.85,129.23 442.72,143.12 442.72,129.23 
			451.62,129.23 451.62,158.88 444.71,158.88 		"/>
		<path class="st1" d="M466.87,159.34c-7.62,0-12.88-5.17-12.88-11.6c0-6.44,5.25-11.61,12.88-11.61c7.62,0,12.88,5.17,12.88,11.61
			C479.75,154.17,474.5,159.34,466.87,159.34 M466.87,152.57c2.75,0,4.79-1.99,4.79-4.83c0-2.84-2.03-4.83-4.79-4.83
			c-2.8,0-4.79,2.03-4.79,4.83C462.09,150.53,464.08,152.57,466.87,152.57 M475.51,126.81l-6.78,7.41h-5.59l3.68-7.41H475.51z"/>
		<path class="st1" d="M486.78,150.74c0.42,2.08,1.86,2.71,3.64,2.71c1.27,0,2.07-0.38,2.07-1.1c0-0.42-0.17-0.72-1.48-1.18
			l-2.54-0.93c-1.23-0.47-6.95-1.91-6.95-6.78c0-4.45,3.94-7.33,9.07-7.33c3.98,0,7.12,1.52,8.81,5.68l-6.31,1.78
			c-0.59-1.35-1.57-1.78-2.58-1.78c-0.93,0-1.4,0.51-1.4,1.06c0,0.55,0.47,0.81,1.48,1.14l2.46,1.02c4.83,1.69,6.99,4.07,7.07,7.11
			c0,5-4.53,7.2-9.7,7.2c-5.55,0-9.23-2.29-10-7.16L486.78,150.74z"/>
	</g>
	<g>
		<rect x="224.18" y="146.87" class="st1" width="0.76" height="42.72"/>
		<rect x="224.18" y="104.15" class="st0" width="0.76" height="42.72"/>
		<rect x="224.18" y="61.44" class="st2" width="0.76" height="42.72"/>
	</g>
	<g>
		<g>
			<g>
				<path class="st3" d="M139.92,115.41c-6.99-11.39-11.61-23.83-13.73-36.97c-0.57-3.54-0.97-7.29-1.17-11.14
					c-0.08-1.6-1.25-2.41-2.3-2.48c-1.05-0.07-2.31,0.58-2.6,2.15c-2.07,11.2-4.65,25.12-11.72,36.44
					c-4.39-0.82-9.03-1.44-13.82-1.83c-5.01-0.42-9.56-0.6-13.92-0.55c-1.62,0.02-2.52,1.27-2.55,2.51
					c-0.03,1.11,0.66,2.37,2.27,2.48c1.54,0.11,3.08,0.22,4.63,0.32c6.3,0.43,12.81,0.87,19.15,1.81c0.26,0.04,0.51,0.08,0.77,0.12
					c-1.83,2.23-3.77,4.13-5.94,5.8c-0.79,0.61-0.91,1.62-0.3,2.42c0.58,0.76,1.75,1.12,2.7,0.39c2.88-2.2,5.55-4.84,7.95-7.85
					c5.73,1.11,11.13,2.62,16.05,4.5c3.81,1.45,7.48,3.21,10.9,5.23c0.65,0.38,1.37,0.42,2.01,0.25c0.51-0.14,0.97-0.42,1.31-0.76
					C140.38,117.46,140.51,116.36,139.92,115.41 M129.83,107.39c0.46,1,0.96,2.02,1.49,3.07c-5.69-2.58-11.94-4.65-18.63-6.15
					c3.77-6.01,6.75-13.31,9.08-22.25C123.38,90.78,126.09,99.29,129.83,107.39"/>
				<path class="st4" d="M173.75,114.7c-0.53-0.84-1.52-1.15-2.46-0.76c-11.21,4.59-23.67,7.96-37.04,10.02
					c-1.09,0.17-1.55,1.1-1.44,1.93c0.11,0.83,0.83,1.66,1.93,1.53c6.95-0.77,14.06-2.14,21.22-4.09
					c-3.22,1.48-6.58,2.74-10.04,3.78c-8.85,2.65-19,3.97-30.14,3.93c-4.39-0.02-8.86-0.3-13.18-0.58
					c-1.74-0.11-3.47-0.22-5.22-0.32c-1.6-0.09-2.57,1.08-2.7,2.27c-0.12,1.13,0.49,2.46,2.11,2.72c3.17,0.51,6.49,0.86,10.17,1.06
					c2.07,0.11,4.26,0.18,6.6,0.21c6.38,0.07,11.92-0.22,16.93-0.88c10.7-1.4,20.45-4.34,29-8.72c5.27-2.7,9.94-5.87,13.88-9.41
					C174.15,116.69,174.31,115.58,173.75,114.7"/>
			</g>
			<g>
				<path class="st1" d="M81.26,151.27h1.14c2.19,0,3.59-1.15,3.59-2.97s-1.39-2.97-3.59-2.97h-3.79v7.87h2.65V151.27z
					 M81.26,147.38h0.97c0.73,0,1.08,0.35,1.08,0.92s-0.35,0.92-1.08,0.92h-0.97V147.38z"/>
				<path class="st1" d="M89.51,151.23h0.72l1.34,1.98h2.83l-1.65-2.43c0.94-0.48,1.48-1.34,1.48-2.47c0-1.82-1.39-2.97-3.59-2.97
					h-3.79v7.87h2.65V151.23z M89.51,147.38h0.97c0.73,0,1.08,0.35,1.08,0.92s-0.35,0.92-1.08,0.92h-0.97V147.38z"/>
				<polygon class="st1" points="101.77,151.2 97.84,151.2 97.84,150.17 101.17,150.17 101.17,148.26 97.84,148.26 97.84,147.34 
					101.63,147.34 101.63,145.33 95.23,145.33 95.23,153.21 101.77,153.21 				"/>
				<polygon class="st1" points="105.45,150.69 108.74,150.69 108.74,148.69 105.45,148.69 105.45,147.34 109.2,147.34 
					109.2,145.33 102.8,145.33 102.8,153.21 105.45,153.21 				"/>
				<polygon class="st1" points="116.59,151.2 112.65,151.2 112.65,150.17 115.98,150.17 115.98,148.26 112.65,148.26 
					112.65,147.34 116.44,147.34 116.44,145.33 110.04,145.33 110.04,153.21 116.59,153.21 				"/>
				<rect x="117.61" y="145.33" class="st1" width="2.65" height="7.87"/>
				<polygon class="st1" points="123.25,153.21 125.91,153.21 125.91,147.39 128.21,147.39 128.21,145.33 120.95,145.33 
					120.95,147.39 123.25,147.39 				"/>
				<path class="st1" d="M133.78,149.59c0,1.2-0.46,1.65-1.2,1.65c-0.74,0-1.2-0.45-1.2-1.65v-4.25h-2.65v4.33
					c0,2.36,1.42,3.72,3.83,3.72c2.42,0,3.84-1.36,3.84-3.72v-4.33h-2.61V149.59z"/>
				<path class="st1" d="M140.26,151.23h0.72l1.34,1.98h2.81h0.02h2.68l0.53-1.37h2.99l0.53,1.37h2.74l-3.44-7.87h-2.61l-3.43,7.85
					l-1.64-2.41c0.94-0.48,1.48-1.34,1.48-2.47c0-1.82-1.4-2.97-3.59-2.97h-3.79v7.87h2.65V151.23z M149.85,147.94l0.76,1.98h-1.53
					L149.85,147.94z M140.26,147.38h0.97c0.73,0,1.08,0.35,1.08,0.92s-0.35,0.92-1.08,0.92h-0.97V147.38z"/>
				<path class="st1" d="M166.74,149.27c0-2.44-1.81-3.94-4.44-3.94h-3.88v7.87h3.88C164.93,153.21,166.74,151.71,166.74,149.27
					 M161.07,151.14v-3.73h1.11c1.11,0,1.88,0.66,1.88,1.87c0,1.2-0.77,1.87-1.88,1.87H161.07z"/>
				<polygon class="st1" points="174.25,151.2 170.32,151.2 170.32,150.17 173.64,150.17 173.64,148.26 170.32,148.26 
					170.32,147.34 174.11,147.34 174.11,145.33 167.71,145.33 167.71,153.21 174.25,153.21 				"/>
				<polygon class="st1" points="75.76,161.68 68.23,174.32 60.51,161.68 53.93,161.68 53.93,185.4 61.22,185.4 61.22,174.96 
					66.37,183.26 69.9,183.26 75.05,174.59 75.11,185.4 82.4,185.4 82.33,161.68 				"/>
				<path class="st1" d="M94.06,161.68L83.69,185.4h8.13l1.59-4.13h9.01l1.59,4.13h8.27l-10.37-23.72H94.06z M95.61,175.5l2.31-5.96
					l2.3,5.96H95.61z"/>
				<path class="st1" d="M125.91,167.61c2.14,0,3.79,1.02,5.19,2.78l5.05-4.51c-2.34-3.05-6-4.74-10.64-4.74
					c-7.62,0-13.21,5.12-13.21,12.4c0,7.29,5.59,12.4,13.21,12.4c4.64,0,8.3-1.7,10.64-4.74l-5.05-4.51
					c-1.39,1.76-3.05,2.78-5.19,2.78c-3.32,0-5.56-2.31-5.56-5.93C120.35,169.91,122.58,167.61,125.91,167.61"/>
				<polygon class="st1" points="146.3,176.25 156.33,176.25 156.33,170.49 146.3,170.49 146.3,167.71 157.72,167.71 157.72,161.68 
					138.44,161.68 138.44,185.4 158.16,185.4 158.16,179.37 146.3,179.37 				"/>
				<rect x="161.25" y="161.68" class="st1" width="8" height="23.72"/>
				<path class="st1" d="M187.59,161.28l3.83-1.66l-2.34-5.41l-9.42,4.08l1.5,3.46c-5.39,1.57-9,6.05-9,11.78
					c0,7.18,5.66,12.4,13.39,12.4c7.73,0,13.38-5.22,13.38-12.4C198.93,167.01,194.24,162.12,187.59,161.28 M185.54,179.47
					c-2.95,0-5.32-2.24-5.32-5.93c0-3.69,2.37-5.93,5.32-5.93c2.95,0,5.32,2.24,5.32,5.93
					C190.86,177.23,188.49,179.47,185.54,179.47"/>
			</g>
		</g>
	</g>
</g>
</svg>
